<svg xmlns="http://www.w3.org/2000/svg" version="1.1" xmlns:xlink="http://www.w3.org/1999/xlink" width="695.49768" height="699.70837"><svg version="1.1" stroke="currentColor" id="SvgjsSvg1020" width="695.49768" height="699.70837" viewBox="0 0 695.49768 699.70837" xmlns="http://www.w3.org/2000/svg" xmlns:svg="http://www.w3.org/2000/svg">
  <defs id="SvgjsDefs1019"></defs>
  <g id="SvgjsG1018" transform="translate(-195.69568,-136.73187)">
    <path style="fill:#333333;fill-opacity:1" d="m 523.67987,835.84469 c -1.375,-0.47302 -4.75,-0.92071 -7.5,-0.99485 -2.75,-0.0742 -7.7,-0.77247 -11,-1.55184 -8.1075,-1.91477 -15.0891,-3.44062 -20.5,-4.48031 -8.7832,-1.68769 -24.5295,-5.28332 -26.5,-6.05118 -6.9111,-2.69319 -8.567,-3.10169 -10.4262,-2.57201 -1.1406,0.32493 -2.9738,0.84611 -4.0738,1.15817 -1.2872,0.36519 -2,0.0898 -2,-0.77264 0,-1.24406 -6.452,-3.53889 -11.7427,-4.17661 -1.2335,-0.14869 -2.515,-0.54258 -2.8478,-0.87533 -0.3327,-0.33275 -1.2376,-0.36223 -2.0109,-0.0655 -0.7732,0.29672 -3.3168,-0.34872 -5.6522,-1.43433 -2.3355,-1.0856 -6.0464,-2.59035 -8.2464,-3.34388 -6.1867,-2.11907 -30.849,-14.64401 -33.2628,-16.89277 -1.1844,-1.10348 -2.3906,-2.00632 -2.6803,-2.00632 -0.941,0 -11.0469,-6.39752 -11.3902,-7.21058 -0.1833,-0.43418 -0.9163,-0.78942 -1.6288,-0.78942 -1.3848,0 -12.5436,-6.45963 -13.4787,-7.80261 -0.3075,-0.44163 -2.3592,-1.89793 -4.5592,-3.23621 -2.2,-1.33829 -6.475,-4.60898 -9.5,-7.26821 -4.8378,-4.25291 -13.9066,-12.27152 -18.879,-16.69297 -0.9278,-0.825 -3.3244,-2.73355 -5.32571,-4.24123 -3.58359,-2.69964 -11.25296,-10.49558 -21.88132,-22.24243 -2.97766,-3.29101 -5.91961,-6.44101 -6.53768,-7 -1.8736,-1.69449 -16.50933,-21.41863 -23.20665,-31.27489 -3.46014,-5.09221 -7.78837,-12.54396 -9.61829,-16.55945 -1.82992,-4.01549 -4.72756,-8.62268 -6.43921,-10.2382 -1.71165,-1.61552 -3.11209,-3.79629 -3.11209,-4.84617 0,-1.04987 -1.125,-3.3838 -2.5,-5.18652 -1.375,-1.80272 -2.51407,-3.64519 -2.53127,-4.09439 -0.0172,-0.4492 -1.13809,-3.06672 -2.49086,-5.81672 -1.35277,-2.75 -2.4637,-5.5074 -2.46873,-6.12756 -0.005,-0.62015 -0.67162,-1.67736 -1.48132,-2.34936 -3.09217,-2.56627 -11.0928,-23.36057 -11.93617,-31.02308 -0.15134,-1.375 -1.24637,-4.29334 -2.4334,-6.48519 -1.18704,-2.19186 -2.15825,-5.13936 -2.15825,-6.55 0,-1.41065 -0.36811,-2.99231 -0.81802,-3.51481 -0.85452,-0.99239 -3.98804,-11.3394 -6.79884,-22.45 -0.90441,-3.575 -2.27162,-8.80865 -3.03824,-11.63034 -2.09558,-7.71315 -4.23303,-26.66762 -3.16095,-28.03064 0.55131,-0.70092 0.54971,-1.3856 -0.004,-1.72783 -1.77165,-1.09495 -2.22546,-8.4504 -0.78018,-12.64537 1.21334,-3.52175 1.21426,-4.17672 0.007,-4.64018 -0.77343,-0.29679 -1.39935,-1.27898 -1.39093,-2.18263 0.012,-1.28929 0.19843,-1.35411 0.86585,-0.30106 0.6131,0.96733 1.00609,0.54859 1.40776,-1.5 0.30648,-1.56308 0.21078,-3.20052 -0.21266,-3.63876 -0.42343,-0.43825 -0.55493,-4.14619 -0.29221,-8.23987 0.27182,-4.2356 0.0466,-7.98609 -0.5227,-8.70319 -1.46659,-1.84741 -0.0821,-23.46796 2.00181,-31.26013 0.58835,-2.2 0.96606,-6.60607 0.83935,-9.79125 -0.12671,-3.18519 0.2353,-7.23519 0.80447,-9 0.9996,-3.09942 1.68392,-7.26268 2.43304,-14.80193 0.19636,-1.97624 1.08878,-5.06 1.98314,-6.85279 0.89436,-1.7928 2.09217,-5.80087 2.6618,-8.90683 1.182,-6.445 3.26858,-13.6453 5.32981,-18.39194 0.77747,-1.79039 2.09898,-5.05526 2.93668,-7.25526 0.83769,-2.2 2.21618,-5.8 3.0633,-8 0.84712,-2.2 1.8221,-5.35 2.16662,-7 1.28526,-6.15542 6.91816,-19.4273 14.00597,-33 12.40674,-23.75812 16.60725,-30.88763 24.49386,-41.57339 6.96748,-9.4404 33.01337,-40.37583 36.56276,-43.42661 0.63989,-0.55 1.79177,-1.93954 2.55974,-3.08786 3.56208,-5.32628 39.25442,-35.41214 42.01112,-35.41214 0.5104,0 2.8309,-1.20763 5.1566,-2.68363 13.1505,-8.34585 15.2736,-9.74756 15.7286,-10.38457 1.0737,-1.50313 31.053,-17.32832 36.5133,-19.27433 2.1927,-0.78144 6.9117,-2.76296 10.4867,-4.40339 9.9293,-4.55619 18.5787,-7.49077 20.6411,-7.00312 1.7531,0.41451 1.745,0.4822 -0.1411,1.18923 -1.1,0.41234 -4.475,1.68619 -7.5,2.83078 -9.9593,3.76834 -44.0198,20.56684 -50.0575,24.68812 -3.2559,2.2225 -6.3063,4.04091 -6.7786,4.04091 -0.4723,0 -4.1899,2.82173 -8.2613,6.27052 -4.0715,3.44878 -13.9276,11.51308 -21.9026,17.92065 -7.975,6.40758 -15.2184,12.47334 -16.0964,13.47948 -3.3779,3.87082 -11.12936,10.43694 -11.67586,9.89044 -0.31537,-0.31537 1.40077,-2.25812 3.81363,-4.31724 2.41283,-2.05912 5.28843,-4.86885 6.39023,-6.24385 1.1017,-1.375 5.0695,-5.49909 8.8173,-9.16463 3.8065,-3.72298 5.9564,-6.44031 4.8707,-6.15641 -1.0689,0.27952 -2.9638,1.4786 -4.211,2.66463 -1.2471,1.18602 -3.2567,2.83141 -4.4658,3.65641 -5.3156,3.62715 -18.43971,16.37684 -27.27821,26.5 -5.28223,6.05 -10.29198,11.5257 -11.13276,12.16824 -0.84079,0.64253 -1.22763,1.4693 -0.85966,1.83728 0.36798,0.36798 4.5273,-3.30773 9.24295,-8.16824 4.71564,-4.86051 8.57637,-8.33331 8.57938,-7.71734 0.003,0.61597 -4.38202,6.15957 -9.74452,12.31912 -11.92281,13.69495 -15.66404,18.33309 -22.87582,28.35999 -3.08517,4.28948 -5.80695,7.60151 -6.04839,7.36007 -0.24143,-0.24144 1.41196,-3.46304 3.67421,-7.15912 2.26225,-3.69609 3.90542,-6.92792 3.65148,-7.18186 -0.89089,-0.89089 -10.53875,14.75746 -18.53452,30.06207 -4.65226,8.90483 -5.87102,15.16993 -1.48229,7.61979 4.35434,-7.491 7.63852,-12.31013 11.04928,-16.21348 3.00039,-3.43371 4.36246,-5.34175 11.32287,-15.86145 8.10116,-12.24381 40.5316,-46.44669 54.9932,-57.99884 3.575,-2.85576 8.975,-7.2981 12,-9.87188 8.8772,-7.55301 17.143,-13.58668 22.5,-16.42398 2.75,-1.45652 5.8847,-3.2067 6.9661,-3.88929 17.1411,-10.82007 21.264,-13.27892 26.5339,-15.82473 2.475,-1.19563 8.0373,-3.91593 12.3606,-6.04511 4.3234,-2.12919 8.4859,-3.87124 9.25,-3.87124 0.7642,0 1.3894,-0.41425 1.3894,-0.92055 0,-0.5063 1.35,-1.21704 3,-1.57944 1.65,-0.3624 3,-1.07316 3,-1.57946 0,-0.5063 0.675,-0.92054 1.5,-0.92054 2.6515,0 1.5852,1.44819 -2.5115,3.41087 -2.1937,1.05098 -3.9885,2.28192 -3.9885,2.73541 0,0.94034 8.0521,-2.08022 14.2994,-5.36407 2.3103,-1.21441 5.3503,-2.32464 6.7556,-2.46717 1.4052,-0.14253 6.399,-1.80884 11.0972,-3.70292 4.6983,-1.89407 10.7485,-3.76617 13.445,-4.16021 2.6965,-0.39404 6.9242,-1.78192 9.3948,-3.08418 2.4706,-1.30225 5.9316,-2.36773 7.691,-2.36773 1.7594,0 3.4509,-0.40776 3.759,-0.90612 0.308,-0.49837 1.4587,-0.67109 2.5572,-0.38384 1.0985,0.28726 3.1246,-0.21638 4.5025,-1.1192 1.6036,-1.05073 4.3934,-1.59777 7.7517,-1.52 2.8856,0.0668 8.3398,-0.61954 12.1204,-1.52524 3.7806,-0.9057 9.1806,-1.58392 12,-1.50715 2.8194,0.0768 12.7762,-0.12619 22.1262,-0.45101 31.5829,-1.09721 47.744,-0.7907 50.5755,0.95921 0.3577,0.22112 3.7496,0.667 7.5375,0.99083 3.7878,0.32383 8.0558,1.16661 9.4843,1.87284 1.4285,0.70623 6.1535,2.08586 10.5,3.06585 4.3465,0.97998 9.8309,2.39874 12.1876,3.1528 2.3567,0.75407 4.9887,1.37103 5.8489,1.37103 0.8602,0 2.9819,0.61388 4.715,1.36418 1.7332,0.7503 5.1762,2.14947 7.6512,3.10927 2.475,0.9598 5.625,2.23866 7,2.84191 l 2.5,1.09682 -2.727,0.35811 c -1.5683,0.20595 -4.9017,-0.73423 -7.8453,-2.21273 -2.8152,-1.41395 -10.138,-3.7543 -16.2731,-5.20076 -6.135,-1.44646 -14.5296,-3.75188 -18.6546,-5.12315 -4.125,-1.37126 -11.1,-3.1222 -15.5,-3.89096 -8.6031,-1.50312 -43.4279,-3.07183 -42.3476,-1.90758 0.3589,0.38673 6.6589,1.11131 14,1.61018 15.6942,1.0665 20.1015,1.7349 19.3591,2.93601 -0.5489,0.8882 -7.2436,0.55588 -10.6627,-0.52928 -1.0168,-0.32274 -1.8488,-0.16272 -1.8488,0.35559 0,1.21747 4.9471,2.19239 11.125,2.19239 2.6812,0 4.875,0.40581 4.875,0.90181 0,0.496 2.8125,1.2104 6.25,1.58756 5.9048,0.64788 23.3059,4.55183 28.75,6.45011 1.375,0.47944 7.9,2.55297 14.5,4.60784 6.6,2.05488 12.464,4.09568 13.031,4.53514 0.5671,0.43945 2.1448,1.00097 3.5061,1.24781 1.3612,0.24684 5.3645,1.8485 8.8961,3.55926 6.7809,3.2847 8.0666,3.71024 6.5116,2.15526 -1.1844,-1.18442 -15.3049,-8.93236 -17.6948,-9.70922 -2.6043,-0.84653 -2.1206,-2.58181 0.5,-1.79353 3.8542,1.15939 24.75,11.74557 24.75,12.53879 0,0.41387 -0.5625,0.9626 -1.25,1.2194 -0.7949,0.29692 -0.5219,0.75099 0.75,1.2472 1.6583,0.64698 10.6226,4.70136 13.8892,6.28181 0.489,0.23661 0.5925,-0.0497 0.23,-0.63635 -0.6108,-0.9883 -9.1939,-5.33926 -12.6166,-6.39565 -1.1674,-0.36032 -1.0278,-0.7134 0.6334,-1.60246 1.7964,-0.96142 2.5578,-0.74446 4.8534,1.38297 1.4975,1.38781 4.4749,3.22441 6.6166,4.08134 2.1417,0.85693 3.894,1.91517 3.894,2.35165 0,0.43648 1.3447,1.26237 2.9883,1.83531 1.6435,0.57295 4.9871,2.41697 7.4301,4.09783 2.4431,1.68086 4.7717,3.05611 5.1748,3.05611 1.6849,0 29.6025,19.44485 37.9068,26.40239 4.95,4.14722 9.9,7.54116 11,7.5421 1.6678,0.001 1.4186,-0.49922 -1.5,-3.01404 -1.925,-1.65866 -4.625,-3.7791 -6,-4.7121 -1.375,-0.933 -6.745,-4.99447 -11.9332,-9.02549 -5.1883,-4.03102 -11.7133,-8.85792 -14.5,-10.72644 -2.7868,-1.86851 -6.6418,-4.7618 -8.5668,-6.42952 -1.925,-1.66771 -4.3016,-3.03327 -5.2814,-3.03456 -0.9798,-0.001 -2.0404,-0.67734 -2.357,-1.50234 -0.3166,-0.825 -1.4275,-1.5 -2.4686,-1.5 -1.0412,0 -1.893,-0.45 -1.893,-1 0,-2.59512 6.651,0.3936 14.5,6.51577 5.3475,4.17105 13.908,9.48423 15.2808,9.48423 0.6082,0 1.6938,0.83232 2.4125,1.8496 0.7187,1.01729 6.0607,5.85479 11.8711,10.75 5.8104,4.89522 12.0647,10.61088 13.8984,12.70148 1.8338,2.09059 4.5055,4.40684 5.9372,5.14722 4.1043,2.12239 20.864,19.06778 34.6678,35.0517 3.7998,4.4 7.8353,8.9 8.9678,10 2.913,2.82966 11.4644,16.15205 11.4644,17.86075 0,0.7839 0.675,1.68429 1.5,2.00087 0.825,0.31658 1.5,1.28437 1.5,2.15064 0,0.86626 1.0817,2.74163 2.4038,4.16747 1.3222,1.42585 3.0097,3.76871 3.75,5.20636 0.7404,1.43765 2.5206,4.41391 3.956,6.61391 1.4353,2.2 2.9329,5.35 3.3278,7 0.395,1.65 1.7192,4.35 2.9429,6 3.0789,4.15179 9.4512,17.40864 10.2231,21.26789 0.3506,1.75299 1.2582,3.70245 2.0169,4.33212 0.7587,0.62968 1.3795,1.97451 1.3795,2.9885 0,1.014 0.6345,3.3214 1.41,5.12756 3.8022,8.85564 9.7391,25.22647 12.0704,33.28393 4.2446,14.66982 5.5909,21.20176 7.5228,36.5 1.508,11.94076 1.7385,13.5 1.9957,13.5 0.1249,0 0.3468,1.35 0.4933,3 0.1464,1.65 0.5636,6.15 0.9272,10 3.767,39.89344 -2.5098,98.64062 -14.0501,131.5 -0.8692,2.475 -1.9186,5.88758 -2.332,7.58351 -0.4134,1.69594 -1.2522,3.94594 -1.8641,5 -1.8854,3.24823 -1.4517,-0.76077 0.7931,-7.32953 6.0408,-17.67684 11.3802,-43.53582 12.4193,-60.14682 0.5645,-9.02565 0.5166,-9.32867 -1.2261,-7.75154 -1.2688,1.14822 -1.6751,2.58499 -1.3525,4.78265 0.5027,3.42571 -1.4356,16.3391 -2.8594,19.04928 -0.4876,0.92816 -1.8656,5.87816 -3.0622,11 -1.1966,5.12185 -2.5368,9.78016 -2.9782,10.35182 -0.4414,0.57165 -1.2574,2.82165 -1.8135,5 -2.212,8.66567 -5,17.42215 -7.6291,23.96063 -0.6634,1.65 -2.421,6.375 -3.9058,10.5 -1.4847,4.125 -3.5679,9.34929 -4.6292,11.60953 -1.0613,2.26024 -1.9296,4.58134 -1.9296,5.158 0,1.49631 -5.8627,12.20364 -17.1009,31.23247 -13.5799,22.99384 -16.5911,27.61184 -22.1383,33.95194 -5.5693,6.36526 -6.1214,7.02338 -10.4563,12.46402 -2.5846,3.24394 -2.9669,4.29323 -2,5.48927 0.9373,1.15932 0.9265,1.31708 -0.05,0.73044 -0.7591,-0.456 -2.2703,0.34782 -3.8694,2.05804 -4.0113,4.2903 -14.385,17.07455 -14.385,17.72767 0,1.47614 1.9979,0.15721 7.4549,-4.92138 5.6499,-5.2581 7.5451,-6.4411 7.5451,-4.70962 0,0.43472 -2.7659,3.56487 -6.1464,6.9559 -4.0216,4.03404 -7.6633,6.68236 -10.5341,7.66054 -2.4132,0.82226 -5.8348,2.80945 -7.6036,4.41598 -12.947,11.75964 -32.7885,28.1772 -34.0536,28.1772 -0.481,0 -2.6475,1.40424 -4.8145,3.12055 -2.167,1.7163 -4.1562,2.90441 -4.4203,2.64024 -0.5926,-0.59259 5.276,-5.71876 13.7135,-11.97862 3.4975,-2.5948 9.1411,-7.3198 12.5414,-10.5 14.8212,-13.86182 24.0729,-23.09257 27.3242,-27.26253 1.9214,-2.46419 5.3465,-6.51419 7.6114,-9 7.723,-8.47622 10.6486,-12.08642 10.1768,-12.55815 -0.2592,-0.25924 -8.3066,7.4164 -17.883,17.05697 -10.1741,10.24222 -20.3215,19.46723 -24.4118,22.19281 -3.85,2.56547 -9.25,6.56298 -12,8.88335 -7.693,6.49117 -31.2332,21.32922 -44.2019,27.86174 -8.8243,4.44491 -32.2992,13.87589 -32.9411,13.23399 -0.4743,-0.47432 5.0933,-3.30924 18.143,-9.23809 8.3997,-3.8162 14.7573,-8.33933 14.1063,-10.03585 -0.3436,-0.89533 1.6808,-2.88128 5.68,-5.57232 17.2657,-11.61802 33.0142,-24.42704 44.2289,-35.97348 10.8087,-11.12855 17.4346,-18.87061 16.1499,-18.87061 -0.2591,0 -2.7592,2.3625 -5.5558,5.25 -5.1173,5.28373 -7.1431,5.34026 -2.75,0.0767 1.2976,-1.5547 3.068,-4.2095 3.9341,-5.89956 0.8661,-1.69005 2.2844,-3.6618 3.1518,-4.38165 1.382,-1.14697 1.3948,-1.4471 0.1036,-2.42716 -1.4589,-1.10737 0.4278,-4.2221 9.4602,-15.61835 1.0898,-1.375 3.3725,-4.4125 5.0727,-6.75 2.6418,-3.63191 4.9183,-5.3909 4.9183,-3.80014 0,1.11947 -6.242,9.55014 -7.0708,9.55014 -0.5111,0 -0.9292,0.52706 -0.9292,1.17126 0,0.64419 -0.7875,2.07055 -1.75,3.1697 -1.4301,1.63317 -1.1598,1.57037 1.4787,-0.34358 3.0412,-2.20599 11.5436,-12.89284 19.7312,-24.80051 2.0055,-2.91672 4.3206,-6.06672 5.1447,-7 2.6785,-3.03339 7.8869,-11.64772 8.2253,-13.60405 0.4203,-2.42939 3.1264,-6.59282 4.2851,-6.59282 0.4868,0 0.885,-0.62686 0.885,-1.39302 0,-0.76615 0.675,-1.65203 1.5,-1.96861 0.825,-0.31658 1.5,-1.48973 1.5,-2.60699 0,-1.11726 0.3402,-2.03138 0.7559,-2.03138 1.2381,0 5.9607,-11.59756 9.3658,-23 1.0677,-3.575 2.3013,-7.175 2.7416,-8 0.4402,-0.825 1.4243,-3.6375 2.1869,-6.25 0.7625,-2.6125 1.7382,-4.75 2.1681,-4.75 1.1219,0 0.9004,1.92698 -0.7471,6.5 -1.7093,4.74441 -1.7127,4.76727 -0.6084,4.08477 0.4746,-0.29329 1.4163,-2.68234 2.0928,-5.30901 0.6764,-2.62667 1.6064,-5.67576 2.0666,-6.77576 1.2401,-2.96427 4.6563,-15.20952 5.9981,-21.5 0.6452,-3.025 1.8425,-8.1396 2.6606,-11.36578 1.0688,-4.21429 1.1823,-6.17103 0.4033,-6.95 -0.6046,-0.60462 -1.118,-0.664 -1.1607,-0.13422 -0.042,0.5225 -0.2388,1.625 -0.4371,2.45 -0.1984,0.825 -1.0374,4.88842 -1.8646,9.02983 -1.7194,8.60892 -3.6449,14.05006 -4.3243,12.22017 -0.7404,-1.9941 -2.2975,-1.44581 -2.2975,0.80901 0,1.24256 0.4361,1.7895 1.0998,1.37933 0.7997,-0.49424 0.7997,-0.119 0,1.37524 -0.6049,1.13021 -1.0998,2.82042 -1.0998,3.756 0,0.93559 -1.0382,2.66324 -2.3071,3.83922 -1.4513,1.345 -3.8578,6.80152 -6.4876,14.70947 -3.8803,11.66889 -5.342,15.42979 -10.3286,26.57686 -1.0322,2.30733 -1.8767,4.42887 -1.8767,4.71453 0,0.28567 -2.1375,4.02036 -4.75,8.29932 -2.6125,4.27896 -5.2,8.53264 -5.75,9.45264 -3.2886,5.50092 -10.8002,15.87149 -11.2037,15.46796 -0.2631,-0.2631 1.9909,-4.6749 5.0088,-9.80398 5.8543,-9.94936 6.2241,-10.6348 11.8498,-21.96478 5.0667,-10.20407 7.8451,-16.54419 7.8451,-17.90167 0,-0.63281 0.6505,-2.345 1.4456,-3.80486 1.8774,-3.44727 4.209,-8.99809 5.1054,-12.15429 0.3904,-1.375 1.5961,-4.525 2.6791,-7 2.9615,-6.7674 3.4673,-8.06536 5.2609,-13.5 2.9877,-9.05225 5.6623,-19.89535 6.5366,-26.5 0.4732,-3.575 1.3417,-9.2 1.93,-12.5 1.062,-5.95702 2.5057,-15.32793 3.5434,-23 0.7431,-5.49462 3.1328,-12.10692 4.156,-11.5 0.9261,0.54928 0.9202,0.8038 -0.1457,6.25 -0.5153,2.63323 -0.3816,3.75 0.4489,3.75 0.7453,0 0.6016,0.58106 -0.3888,1.57142 -0.8862,0.88626 -1.5714,3.25599 -1.5714,5.4349 0,2.12491 -0.4761,5.11571 -1.058,6.64621 -0.5819,1.53051 -1.2511,5.4973 -1.4871,8.8151 -0.2361,3.3178 -0.6438,7.38237 -0.9061,9.03237 -0.2623,1.65 -0.2288,2.17945 0.075,1.17657 0.3033,-1.00288 1.1428,-1.59652 1.8655,-1.3192 2.2153,0.85007 3.6381,-8.5428 1.4948,-9.86746 -0.559,-0.34546 -0.6827,-1.15952 -0.275,-1.80901 0.4078,-0.6495 0.6035,-2.01759 0.435,-3.04021 -0.1747,-1.05994 0.1299,-1.58962 0.7085,-1.23201 0.6096,0.37672 0.9797,-0.61635 0.9265,-2.48594 -0.049,-1.71229 0.4928,-3.47253 1.2033,-3.91163 0.7664,-0.47363 1.0873,-1.86826 0.789,-3.42861 -0.2765,-1.44663 -0.1303,-2.86045 0.325,-3.14181 2.0454,-1.26417 1.3309,-56.55493 -0.9814,-75.94069 -0.4593,-3.85 -0.6198,-7.38041 -0.3568,-7.84536 0.2629,-0.46494 0.027,-1.81494 -0.5254,-3 -0.5519,-1.18505 -2.0082,-6.65464 -3.2362,-12.15464 -1.2281,-5.5 -2.476,-10.675 -2.7733,-11.5 -0.2972,-0.825 -0.4532,-1.88487 -0.3466,-2.35526 0.1066,-0.4704 -0.268,-1.4118 -0.8325,-2.09201 -0.5646,-0.68022 -0.7722,-1.49103 -0.4614,-1.80181 0.3108,-0.31079 -0.096,-1.84438 -0.9038,-3.40799 -0.8079,-1.56362 -4.471,-11.84056 -8.1402,-22.83765 -3.6693,-10.9971 -7.2512,-20.6721 -7.96,-21.5 -0.7087,-0.82791 -2.5513,-3.98028 -4.0945,-7.00528 -1.5433,-3.025 -3.2648,-6.4 -3.8255,-7.5 -0.5607,-1.1 -2.5813,-4.7 -4.4903,-8 -1.909,-3.3 -4.2994,-7.65889 -5.3121,-9.68643 -1.0127,-2.02753 -2.3014,-3.9708 -2.8638,-4.31838 -0.5624,-0.34758 -1.6537,-2.14264 -2.4252,-3.98904 -0.7715,-1.8464 -3.2396,-5.68104 -5.4848,-8.52142 -2.2452,-2.84038 -4.0861,-5.46142 -4.0909,-5.82453 -0.011,-0.86094 -12.8844,-14.84585 -12.945,-14.06321 -0.025,0.32834 0.8566,1.63799 1.96,2.91032 2.9851,3.44184 1.5599,3.66353 -2.3977,0.37296 -3.6259,-3.01473 -4.668,-5.00078 -2.1086,-4.01865 0.825,0.31658 1.5,0.31246 1.5,-0.009 0,-1.07284 -10.2809,-13.80562 -13.9153,-17.23397 -1.9716,-1.85983 -6.3972,-6.11453 -9.8347,-9.45488 -3.4375,-3.34036 -6.25,-5.75671 -6.25,-5.36969 0,0.38703 -2.5875,-1.76131 -5.75,-4.77409 -3.1625,-3.01278 -6.3125,-5.48725 -7,-5.49881 -0.6875,-0.0116 -1.25,-0.38768 -1.25,-0.83581 0,-0.44813 -1.4872,-1.52399 -3.3049,-2.3908 -1.8177,-0.86681 -6.6552,-4.24276 -10.75,-7.50212 -9.1607,-7.29168 -14.0459,-10.29229 -16.7564,-10.29229 -1.1414,0 -2.6994,-0.89104 -3.4622,-1.98008 -0.7628,-1.08905 -3.0075,-2.65723 -4.9883,-3.48485 -1.9808,-0.82762 -3.8619,-1.92615 -4.1802,-2.44116 -0.3183,-0.51502 -2.7115,-1.70089 -5.3183,-2.63527 -2.6069,-0.93439 -6.9897,-2.70708 -9.7397,-3.93933 -2.75,-1.23225 -6.125,-2.58327 -7.5,-3.00227 -1.375,-0.419 -2.95,-1.11673 -3.5,-1.55051 -1.4515,-1.14474 -20.4672,-8.56437 -24,-9.36442 -5.65,-1.27949 -16.9988,-4.70902 -20.134,-6.08435 -5.9441,-2.60748 -26.8998,-7.32344 -39.366,-8.85909 -16.2432,-2.00091 -35,-2.95741 -35,-1.7848 0,0.50016 3.5356,0.96103 7.8569,1.02415 15.3491,0.22424 54.9898,6.65195 57.6431,9.34678 0.6758,0.68642 -0.2967,0.80693 -3,0.37175 -2.2,-0.35415 -8.725,-1.09357 -14.5,-1.64314 -5.775,-0.54957 -13.875,-1.49339 -18,-2.09736 -12.5449,-1.83681 -23.4472,-2.60181 -24.45,-1.71561 -0.5613,0.49605 -0.2545,0.83956 0.75,0.83956 0.935,0 1.7,0.45 1.7,1 0,0.5927 -4.3785,1.07848 -10.75,1.19268 -17.4338,0.31249 -19.2987,0.38818 -29.25,1.18713 -5.225,0.4195 -10.9741,1.43228 -12.7759,2.25064 -1.8017,0.81835 -4.0996,1.22644 -5.1065,0.90687 -1.0069,-0.31957 -4.5953,0.0639 -7.9742,0.85213 -3.9045,0.91087 -6.1434,1.06154 -6.1434,0.41345 0,-0.61289 -1.0963,-0.74456 -2.748,-0.33003 -3.693,0.9269 -3.9259,1.31388 -1.7488,2.90582 1.8042,1.31926 1.8021,1.38647 -0.073,2.35389 -1.0616,0.54771 -3.783,1.23112 -6.0475,1.51867 -5.3742,0.68244 -23.3348,6.45495 -25.8097,8.29522 -2.4415,1.81542 -1.4567,2.94333 1.3296,1.52281 1.1536,-0.5881 2.9913,-1.51928 4.0838,-2.06928 1.0926,-0.55 2.5551,-0.97905 3.25,-0.95344 2.3674,0.0872 -8.3899,5.07427 -18.5771,8.6122 -12.6424,4.39062 -34.2239,14.94386 -38.738,18.94271 -0.8684,0.76919 -1.8416,1.39853 -2.1628,1.39853 -1.0651,0 -10.6691,6.62818 -16.5073,11.3925 -3.1632,2.58134 -9.77,7.48653 -14.6819,10.90042 -5.3168,3.69536 -15.0285,12.29778 -24,21.25873 -14.8602,14.84274 -18.1604,18.59578 -24.0693,27.37145 -1.65,2.45052 -3.675,5.45531 -4.5,6.6773 -0.825,1.22199 -4.03366,5.9743 -7.13035,10.5607 -11.6041,17.18639 -13.84541,21.19057 -25.65804,45.8389 -7.33376,15.30268 -9.11281,19.78685 -11.7038,29.5 -2.46104,9.226 -2.45075,9.2043 -3.54629,7.47197 -0.73122,-1.15624 -0.93418,-0.97525 -0.94621,0.84377 -0.008,1.27366 -0.44444,3.11757 -0.96893,4.09759 -0.52449,0.98002 -1.40422,4.43794 -1.95495,7.68426 -4.69802,27.6926 -6.05198,34.25999 -7.21083,34.9762 -1.35338,0.83644 -1.08571,17.8211 0.30273,19.20954 0.65084,0.65083 0.85137,1.5153 0.44563,1.92104 -0.40574,0.40574 -1.10481,0.14372 -1.55348,-0.58225 -1.38477,-2.24061 -2.06796,4.37657 -2.10392,20.37788 -0.0638,28.397 1.21062,50.00606 3.16888,53.73154 0.5006,0.95236 1.0782,3.87736 1.28357,6.5 0.44277,5.65448 2.28072,13.94728 3.58584,16.17918 0.79323,1.35653 0.93379,1.36864 0.95974,0.0827 0.0167,-0.82863 -0.39209,-2.97978 -0.90849,-4.78034 -0.51639,-1.80055 -1.02262,-7.19758 -1.12495,-11.99339 -0.10233,-4.79582 -0.51951,-9.16966 -0.92705,-9.71966 -0.76735,-1.03558 -1.74584,-10.78076 -2.56039,-25.5 -0.25871,-4.675 -0.73832,-9.175 -1.06579,-10 -0.55897,-1.40819 -0.73626,-10.36451 -0.48994,-24.75 0.0589,-3.4375 0.55112,-6.25 1.0939,-6.25 0.61122,0 0.92537,5.51655 0.82527,14.49193 -0.0889,7.97056 0.14202,14.79556 0.51312,15.16667 0.3711,0.3711 0.68862,2.96223 0.70561,5.75806 0.0383,6.29819 1.62954,18.85434 2.91379,22.9914 3.43075,11.05177 5.70605,27.07173 3.99515,28.12913 -1.21747,0.75244 -1.22526,4.46281 -0.009,4.46281 0.51175,0 1.10641,-1.0125 1.32148,-2.25 0.36519,-2.10133 0.47423,-2.05177 1.65022,0.75 0.69256,1.65 1.41319,4.6374 1.6014,6.63866 0.18821,2.00127 1.28639,5.48942 2.44039,7.75145 1.154,2.26203 2.81048,6.89313 3.68105,10.29132 0.87058,3.3982 1.92382,6.88505 2.34054,7.74856 4.41845,9.15573 9.403,18.18863 14.36832,26.03796 3.29408,5.20737 7.27309,12.18237 8.84224,15.5 2.88432,6.09825 7.47781,12.29866 20.45774,27.61444 11.882,14.02027 18.7875,20.82636 31.316,30.86534 2.3665,1.89626 4.8193,3.92126 5.4506,4.5 3.628,3.3259 11.5646,9.55227 12.176,9.55227 0.3947,0 2.5639,1.47205 4.8206,3.27122 2.2566,1.79917 5.9915,4.54373 8.2996,6.09902 3.5085,2.36414 4.02,3.11062 3.1194,4.55272 -0.8606,1.3781 -0.5483,2.25386 1.5534,4.35553 1.4468,1.44683 2.6306,2.34004 2.6306,1.98492 0,-0.35512 0.5625,0.0397 1.25,0.87733 3.6444,4.44035 36.3498,22.85926 40.5899,22.85926 0.6746,0 3.5741,1.19063 6.4433,2.64585 4.1034,2.08117 20.9264,8.35415 22.4044,8.35415 0.1718,0 0.3124,-0.45 0.3124,-1 0,-0.55 -0.6835,-1 -1.5189,-1 -0.8354,0 -3.9792,-1.31288 -6.9862,-2.91751 -3.007,-1.60464 -6.711,-3.19337 -8.2311,-3.53053 -1.5201,-0.33715 -4.5638,-2.17939 -6.7638,-4.09387 l -4,-3.48085 3,0.62611 c 1.65,0.34436 5.25,1.92411 8,3.51055 11.6183,6.70247 22.5636,11.05227 44.5,17.68489 3.575,1.08093 7.5125,2.27372 8.75,2.65065 1.3054,0.39761 2.25,0.25931 2.25,-0.32943 0,-1.33666 -9.5772,-6.12001 -12.2535,-6.12001 -1.149,0 -2.7995,-0.61682 -3.6678,-1.37071 -0.8683,-0.75389 -4.6113,-2.36396 -8.3179,-3.57792 -3.7065,-1.21396 -6.9956,-2.62214 -7.309,-3.12929 -0.8637,-1.39754 1.6966,-1.09313 4.9125,0.58408 1.5753,0.82161 3.4766,1.49384 4.2249,1.49384 0.7484,0 4.1845,1.28635 7.6357,2.85855 6.0124,2.73891 23.0799,7.44273 38.5904,10.63558 7.8152,1.60875 18.4033,1.88178 21.6847,0.55917 1.1995,-0.48349 2.562,-0.3553 3.4041,0.32028 0.9255,0.74239 6.0394,1.03662 15,0.86303 18.9242,-0.36661 30.2888,2.43284 37.5255,9.24359 l 2.9296,2.75719 -2.3274,1.24559 c -2.2119,1.18377 -2.0979,1.28002 2.297,1.93908 2.5435,0.38142 4.8615,1.07688 5.1511,1.54547 0.8769,1.41889 -0.3877,3.51697 -2.7491,4.56103 -1.6341,0.72248 -2.157,1.69987 -1.9547,3.65389 0.1759,1.6997 -0.4015,3.14833 -1.5913,3.99256 -1.0271,0.72874 -2.4273,2.37981 -3.1117,3.66905 -0.6843,1.28923 -3.2307,3.22279 -5.6587,4.29679 -4.3277,1.91438 -5.8262,3.85915 -2.9735,3.85915 0.7926,0 1.763,0.52088 2.1564,1.15752 0.4902,0.79308 0.037,0.97998 -1.441,0.59362 -1.4156,-0.3702 -2.1563,-0.10394 -2.1563,0.77509 0,0.73644 -0.909,1.6275 -2.02,1.98012 -1.111,0.35261 -3.9235,2.07044 -6.25,3.81738 -2.3265,1.74695 -5.58,3.79127 -7.23,4.54294 -1.65,0.75167 -3.7814,1.76417 -4.7365,2.25 -0.955,0.48583 -3.7451,0.88333 -6.2003,0.88333 -3.0646,0 -4.7464,0.50493 -5.3653,1.61078 -0.6471,1.15629 -3.2453,1.84707 -9.2087,2.44824 -4.569,0.4606 -8.6346,1.36718 -9.0347,2.01462 -0.8924,1.44379 -13.4935,2.17644 -16.9545,0.98576 z m -77.2708,-20.66357 c -0.3323,-0.33229 -1.1948,-0.36782 -1.9167,-0.0789 -0.7977,0.31923 -0.5607,0.55618 0.6042,0.60417 1.0542,0.0434 1.6448,-0.19293 1.3125,-0.52522 z m -74.7292,-32.48945 c 0,-0.60149 -0.9,-1.32898 -2,-1.61663 -1.1,-0.28766 -2,-0.8483 -2,-1.24587 0,-0.39757 -1.125,-1.23544 -2.5,-1.86193 -3.7691,-1.71732 -2.9999,0.20413 1.25,3.12264 4.1912,2.87816 5.25,3.2012 5.25,1.60179 z m 150.5697,-9.67006 c -0.2841,-0.28414 -2.6529,-0.7002 -5.2639,-0.92459 -2.6109,-0.22439 -4.9854,-0.7633 -5.2765,-1.19757 -0.2911,-0.43428 -1.4293,-1.03657 -2.5293,-1.33843 -1.1,-0.30185 -2.8489,-0.89659 -3.8864,-1.32163 -1.3205,-0.54094 -1.76,-0.39346 -1.465,0.49155 0.4929,1.47874 6.6421,3.94737 12.3514,4.95855 3.93,0.69603 7.0863,0.34873 6.0697,-0.66788 z M 382.10567,718.4525 c -0.3518,-0.91697 -1.3822,-1.66721 -2.2897,-1.66721 -0.9074,0 -3.0432,-1.4625 -4.7462,-3.25 -3.1405,-3.29641 -5.9159,-5.69866 -17.1399,-14.83537 -3.4375,-2.79825 -6.25,-5.44419 -6.25,-5.87986 0,-0.43567 -1.2608,-1.31439 -2.8018,-1.95271 -1.5411,-0.63832 -5.2511,-3.43595 -8.2445,-6.21696 -2.9934,-2.78101 -6.3003,-5.51542 -7.3486,-6.07647 -1.7817,-0.95355 -1.7713,-0.83316 0.16,1.84564 1.1363,1.57615 4.0165,4.71283 6.4005,6.97041 2.3839,2.25758 6.0565,5.73463 8.1612,7.72679 2.1048,1.99216 5.7048,5.07277 8,6.84581 2.2953,1.77304 5.7895,4.59599 7.7649,6.27321 1.9754,1.67723 5.9704,5.07451 8.8777,7.54951 2.9073,2.475 6.0161,4.7864 6.9084,5.13646 2.1174,0.83072 3.3544,-0.36798 2.548,-2.46925 z m 389.5742,-10.66721 c 0,-0.55 -0.1984,-1 -0.4409,-1 -0.2426,0 -0.7191,0.45 -1.0591,1 -0.3399,0.55 -0.1414,1 0.441,1 0.5825,0 1.059,-0.45 1.059,-1 z m -488.87815,-7.03206 c -1.71699,-1.71698 -3.1218,-2.74508 -3.1218,-2.28465 0,1.23702 5.1153,6.53474 5.72298,5.92706 0.28634,-0.28634 -0.8842,-1.92542 -2.60118,-3.64241 z m -4.76017,-6.46794 c -0.31659,-0.825 -1.03256,-1.5 -1.59106,-1.5 -0.58531,0 -0.48812,0.6354 0.22943,1.5 0.68469,0.825 1.40067,1.5 1.59106,1.5 0.19039,0 0.0872,-0.675 -0.22943,-1.5 z m 37.98442,-34.25 c -0.935,-1.5125 -3.3491,-4.55 -5.36455,-6.75 -3.9978,-4.36381 -6.12875,-7.88365 -13.92444,-23 -5.08678,-9.8636 -9.3351,-16.04394 -7.21762,-10.5 0.52518,1.375 2.12615,4.81535 3.55771,7.64522 1.43157,2.82988 2.60285,5.38719 2.60285,5.68292 0,1.26148 10.38672,17.54686 13.7867,21.61622 6.86035,8.21102 9.85085,10.6299 6.55935,5.30564 z m -29.49821,-47.30694 c -1.25406,-2.23132 -2.96259,-4.59382 -3.79672,-5.25 -1.53768,-1.20965 -1.20766,-0.57932 3.56389,6.80694 2.57206,3.98148 2.73463,2.8944 0.23283,-1.55694 z m -4.84784,-7.32094 c 0,-0.20783 -0.66818,-1.97706 -1.48485,-3.93162 -1.60906,-3.85102 -4.13252,-6.29165 -3.16977,-3.06573 0.3078,1.03137 0.8548,3.11273 1.21554,4.62523 0.36074,1.5125 1.28211,2.75 2.04749,2.75 0.76537,0 1.39159,-0.17005 1.39159,-0.37788 z m 554.98465,-4.87212 c 0.01,-0.4125 -0.4347,-0.75 -0.9847,-0.75 -0.55,0 -0.9931,1.0125 -0.9846,2.25 0.012,1.81943 0.2008,1.96295 0.9846,0.75 0.5332,-0.825 0.9763,-1.8375 0.9847,-2.25 z m -562.98465,-9.78212 c 0,-2.30809 -3.02615,-8.06976 -3.94133,-7.50414 -0.60433,0.37349 -0.64376,1.46102 -0.10231,2.82197 0.48451,1.21786 1.12842,3.00179 1.4309,3.96429 0.58954,1.87589 2.61274,2.43179 2.61274,0.71788 z m -5.58163,-14.83581 c 0.29503,-0.47736 -0.33549,-2.61486 -1.40113,-4.75 -1.70952,-3.4252 -1.94063,-3.58785 -1.96374,-1.38207 -0.0547,5.2206 1.81847,8.63421 3.36487,6.13207 z m 575.19648,-13.65989 c 0.6073,-1.9403 0.7654,-3.73719 0.3513,-3.99309 -0.414,-0.2559 -1.0239,0.61481 -1.3552,1.93492 -0.3313,1.3201 -0.8775,3.11699 -1.2137,3.99309 -0.3362,0.87609 -0.2232,1.5929 0.2511,1.5929 0.4742,0 1.3591,-1.58752 1.9665,-3.52782 z m -580.52998,-13.577 c -0.88095,-2.20233 -0.9632,-2.22744 -1.02148,-0.31185 -0.0349,1.14583 0.23661,2.38333 0.60328,2.75 1.19437,1.19438 1.39751,0.0101 0.4182,-2.43815 z m 594.92878,-12.14518 c 0.01,-0.6875 0.285,-2.2625 0.6166,-3.5 0.9277,-3.46156 -1.2863,-2.67542 -2.5324,0.89922 -1.3788,3.95507 -1.3897,3.85078 0.4021,3.85078 0.825,0 1.5062,-0.5625 1.5137,-1.25 z M 261.13722,396.85438 c 0.31643,-0.51199 0.11798,-1.21355 -0.44099,-1.55901 -0.55897,-0.34547 -1.01631,0.0734 -1.01631,0.9309 0,1.75653 0.60006,2.01516 1.4573,0.62811 z m 5.45638,-16.81285 c 1.14852,-3.40934 2.98779,-7.80041 4.08727,-9.75794 2.16374,-3.85234 2.49967,-5.4983 1.12219,-5.4983 -0.48227,0 -1.85638,2.3625 -3.05357,5.25 -1.1972,2.8875 -2.56076,6.15 -3.03014,7.25 -2.30094,5.3923 -4.03542,10.71373 -3.99939,12.27023 0.0578,2.49821 2.30448,-1.88755 4.87364,-9.51399 z m -44.95878,-11.20624 c 0.0868,-2.79175 -1.90895,0.45705 -2.44575,3.98125 l -0.52835,3.46875 1.4645,-3 c 0.80547,-1.65 1.48479,-3.6525 1.5096,-4.45 z m 6.36588,-13.54703 c 1.80107,-4.32416 2.17445,-6.20187 1.33853,-6.73135 -0.63765,-0.40389 -1.71027,0.003 -2.38375,0.90321 -1.27069,1.69936 -4.27556,11.14739 -4.27556,13.44336 0,2.50336 2.73909,-1.41688 5.32078,-7.61522 z m 49.06078,-1.05491 c 0.34149,-0.88993 0.17385,-1.29132 -0.39301,-0.94098 -0.5437,0.33602 -0.98855,1.03439 -0.98855,1.55193 0,1.43844 0.71677,1.12147 1.38156,-0.61095 z m 582.98009,-3.94806 c -0.6272,-1.63433 -2.3617,-2.06275 -2.3617,-0.58334 0,0.759 0.7009,1.27572 2.7187,2.00439 0.1202,0.0434 -0.04,-0.59605 -0.357,-1.42105 z m -628.36165,-3.5 c 0,-0.55 -0.19844,-1 -0.44098,-1 -0.24254,0 -0.7191,0.45 -1.05902,1 -0.33992,0.55 -0.14148,1 0.44098,1 0.58246,0 1.05902,-0.45 1.05902,-1 z m -2.03823,-1.45394 c 1.65175,-1.99023 8.18631,-15.73131 7.70833,-16.2093 -0.57666,-0.57666 -2.05213,1.5586 -5.27145,7.62868 -1.59426,3.00599 -3.46115,6.07564 -4.14865,6.82143 -0.6875,0.74579 -1.25,1.77384 -1.25,2.28455 0,1.39923 1.60005,1.11542 2.96177,-0.52536 z m 60.52866,-5.21326 c 1.09473,-2.10804 2.27158,-4.0578 2.61522,-4.3328 0.34363,-0.275 0.96981,-1.60402 1.3915,-2.95336 0.68118,-2.17966 0.59954,-2.28619 -0.73177,-0.95488 -1.63585,1.63585 -6.76538,10.89297 -6.76538,12.2093 0,1.56091 1.51138,-0.15737 3.49043,-3.96826 z m 565.87122,2.1672 c -0.6086,-1.58598 -2.3617,-2.08085 -2.3617,-0.66667 0,1.05751 1.0931,2.16667 2.1353,2.16667 0.4411,0 0.543,-0.675 0.2264,-1.5 z m -1.8051,-6.13061 c -0.7214,-2.87448 -3.6124,-7.28793 -4.8066,-7.33797 -1.0975,-0.046 -0.9158,1.74805 0.25,2.46858 0.55,0.33991 1,1.49147 1,2.55901 0,1.06754 0.4359,1.94099 0.9687,1.94099 0.5327,0 0.7096,0.675 0.393,1.5 -0.3738,0.97407 0.026,1.5 1.1398,1.5 1.3531,0 1.5759,-0.55556 1.0551,-2.63061 z M 300.30399,322.30463 c 0.36142,-1.08936 1.57439,-3.22133 2.69549,-4.7377 1.12111,-1.51638 1.79443,-3.00099 1.49628,-3.29914 -0.72908,-0.72907 -8.82177,11.77516 -8.7936,13.58721 0.0268,1.72249 3.63128,-2.62498 4.60183,-5.55037 z m 548.45768,3.48066 c 0.5144,0 0.3731,-0.9 -0.3138,-2 -1.2264,-1.96375 -3.768,-2.77275 -3.768,-1.19937 0,0.44035 0.5625,2.00952 1.25,3.48703 0.8195,1.76117 1.3614,2.17425 1.5734,1.19937 0.1778,-0.81787 0.7441,-1.48703 1.2584,-1.48703 z M 244.07293,321.2035 c 1.09323,-2.84891 0.57407,-3.95878 -0.92481,-1.97708 -0.80751,1.06762 -1.4682,2.30512 -1.4682,2.75 0,1.43138 1.76603,0.86097 2.39301,-0.77292 z m 600.60694,-5.29577 c 0,-0.48265 -0.675,-1.43775 -1.5,-2.12244 -0.825,-0.68469 -1.5,-1.76478 -1.5,-2.40021 0,-0.63542 -0.9,-1.92592 -2,-2.86777 -1.1,-0.94184 -2,-1.32195 -2,-0.84468 0,0.47727 0.6266,1.38779 1.3925,2.02337 0.7658,0.63558 1.9454,2.49068 2.6213,4.12244 1.1487,2.7733 2.9862,4.0589 2.9862,2.08929 z m -8.8166,-13.33911 c -0.7176,-0.71756 -1.1834,-0.7766 -1.1834,-0.15 0,1.33478 1.1827,2.51739 1.85,1.85 0.2842,-0.28417 -0.016,-1.04917 -0.6666,-1.7 z M 273.70973,267.72959 c 1.51959,-2.83938 0.4831,-2.37604 -1.51853,0.67882 -0.9453,1.44272 -1.22448,2.31766 -0.62038,1.94431 0.60409,-0.37335 1.5666,-1.55376 2.13891,-2.62313 z m 6.73812,-7.9443 c 0.68696,-1.1 1.08995,-2 0.89553,-2 -0.19442,0 -1.16797,0.9 -2.16346,2 -0.99549,1.1 -1.39848,2 -0.89553,2 0.50294,0 1.4765,-0.9 2.16346,-2 z m 513.23202,0.5 c -0.6846,-0.825 -1.6948,-1.5 -2.2448,-1.5 -0.5579,0 -0.4496,0.66326 0.2448,1.5 0.6847,0.825 1.6949,1.5 2.2449,1.5 0.5579,0 0.4496,-0.66326 -0.2449,-1.5 z m -6.1076,-7.15263 c -2.0278,-3.00592 -10.8665,-10.70657 -11.5288,-10.0443 -0.3356,0.33564 2.1648,3.38526 5.5564,6.77693 5.788,5.78792 8.7752,7.42217 5.9724,3.26737 z m -20.6395,-22.68938 c -15.0637,-13.41454 -42.1087,-32.71467 -45.7319,-32.63576 -1.1722,0.0255 3.5548,3.92179 4.7989,3.95553 0.4509,0.0122 2.782,1.37224 5.1801,3.02224 2.3982,1.65 4.8418,3 5.4302,3 0.5884,0 1.0698,0.36141 1.0698,0.80314 0,0.44173 2.8125,2.77093 6.25,5.17601 3.4375,2.40509 9,6.76867 12.3609,9.69686 3.361,2.92819 6.3781,5.32399 6.7046,5.32399 0.3265,0 1.7186,1.125 3.0936,2.5 1.375,1.375 2.9718,2.5 3.5484,2.5 0.5766,0 -0.6405,-1.50391 -2.7046,-3.34201 z m -368.2529,-7.65799 c 0,-0.55 -0.45,-1 -1,-1 -0.55,0 -1,0.45 -1,1 0,0.55 0.45,1 1,1 0.55,0 1,-0.45 1,-1 z m 13.5,-7.44791 c 1.2411,-0.99307 0.1976,-0.75665 -2.75,0.62306 -2.6125,1.22286 -4.75,2.59526 -4.75,3.04979 0,0.93582 4.4856,-1.26083 7.5,-3.67285 z m 305.2272,-20.55209 c -1.3984,-1.1 -3.1466,-1.99704 -3.8849,-1.99341 -0.7382,0.004 0.01,0.90065 1.6577,1.99341 3.9012,2.58363 5.5117,2.58363 2.2272,0 z m -52.1683,-3.53181 c -1.9045,-1.44054 -4.5589,-1.98549 -4.5589,-0.93597 0,0.60513 3.9864,2.32478 5.5,2.37259 0.55,0.0174 0.1265,-0.62911 -0.9411,-1.43662 z m 43.5256,-5.86644 c -1.3422,-1.61729 -7.086,-3.88805 -7.0818,-2.79973 0,0.79451 7.2892,4.98584 7.8898,4.53859 0.2159,-0.16076 -0.1477,-0.94324 -0.808,-1.73886 z m -235.5845,-1.60175 c 0.731,-1.18279 -0.2475,-1.18279 -3,0 -1.9282,0.82859 -1.9213,0.86195 0.191,0.92971 1.2051,0.0387 2.4691,-0.37971 2.809,-0.92971 z m 11.2292,-4.60417 c -0.3323,-0.33229 -1.1948,-0.36782 -1.9167,-0.0789 -0.7977,0.31923 -0.5607,0.55618 0.6042,0.60417 1.0542,0.0434 1.6448,-0.19293 1.3125,-0.52522 z m 17.0799,-2.36021 c 0.7199,-0.0196 1.0066,-0.52483 0.6371,-1.12274 -0.3788,-0.61294 -1.6041,-0.78879 -2.809,-0.40316 -1.1754,0.37618 -3.9005,0.97788 -6.0558,1.33712 -2.1552,0.35924 -4.0937,1.18111 -4.3077,1.82638 -0.2859,0.86204 1.1513,0.80517 5.4186,-0.21438 3.1943,-0.76318 6.3968,-1.40363 7.1168,-1.42322 z m 46.4335,-1.44172 c -0.3158,-0.51703 0.8227,-0.63084 2.6517,-0.26506 2.1118,0.42236 2.9854,0.28545 2.5609,-0.40134 -0.8042,-1.30134 -8.2684,-0.72978 -10.9552,0.83888 -1.7297,1.0099 -1.4394,1.13838 2.1481,0.95066 2.2815,-0.11937 3.899,-0.62479 3.5945,-1.12314 z m 135.7574,-3.03489 c 0,-0.24254 -0.45,-0.7191 -1,-1.05901 -0.55,-0.33992 -1,-0.14148 -1,0.44098 0,0.58246 0.45,1.05902 1,1.05902 0.55,0 1,-0.19845 1,-0.44099 z m -138.5,-1.55901 c 0.34,-0.55 -0.3085,-1 -1.4409,-1 -1.1325,0 -2.0591,0.45 -2.0591,1 0,0.55 0.6485,1 1.441,1 0.7926,0 1.7191,-0.45 2.059,-1 z m 6.4167,-26.58918 c 1.1395,-1.12346 -1.2028,-1.39287 -6.5253,-0.75055 -4.7688,0.57548 -5.415,0.85299 -3.3914,1.4564 2.328,0.69414 8.9768,0.22089 9.9167,-0.70585 z m 17.6669,-0.66081 c 0.4124,-0.4125 -3.2627,-0.74311 -8.1669,-0.73469 -5.1556,0.009 -8.3616,0.36727 -7.6007,0.84975 1.6115,1.02188 14.7266,0.92618 15.7676,-0.11506 z m 5.4164,0.86663 c 0,-0.21086 -0.9,-0.61873 -2,-0.90638 -1.1,-0.28766 -2,-0.11514 -2,0.38337 0,0.4985 0.9,0.90638 2,0.90638 1.1,0 2,-0.17252 2,-0.38337 z m -9.5828,687.24925 c -0.2944,-0.47624 0.3546,-0.86589 1.442,-0.86589 1.0875,0 2.7629,-0.30148 3.7231,-0.66994 1.0989,-0.42171 1.5053,-0.28068 1.0966,0.3806 -0.8579,1.38799 -5.5795,2.25909 -6.2617,1.15523 z m -90.6047,-0.54901 c 0.7219,-0.28887 1.5844,-0.25334 1.9167,0.0789 0.3323,0.33229 -0.2583,0.56864 -1.3125,0.52522 -1.1649,-0.048 -1.4019,-0.28494 -0.6042,-0.60417 z m -8.0625,-1.00621 c -0.9625,-0.25153 -1.75,-0.90465 -1.75,-1.45139 0,-1.08802 3.9054,-0.19007 5.45,1.25311 0.9993,0.93365 -0.5652,1.01749 -3.7,0.19828 z m -10.75,-3.01544 c -8.1941,-1.66673 -9.2603,-2.06492 -8.5607,-3.19696 0.3282,-0.53109 2.7705,-0.29342 5.8134,0.56575 2.886,0.81488 6.2996,1.63858 7.5856,1.83043 1.2861,0.19185 2.5536,0.56402 2.8166,0.82705 1.1983,1.19837 -1.6828,1.18848 -7.6549,-0.0263 z m 225,-27.32746 c 0,-0.53227 0.3652,-0.96777 0.8115,-0.96777 0.4463,0 1.6838,-0.7875 2.75,-1.75 1.7712,-1.59889 5.9646,-3.52965 10.8449,-4.99331 3.8493,-1.15442 0.4467,1.75255 -5.2134,4.45407 -8.5587,4.08501 -9.193,4.30973 -9.193,3.25701 z m -72,-16.02679 c 0,-0.58246 0.45,-0.7809 1,-0.44098 0.55,0.33991 1,0.81647 1,1.05901 0,0.24254 -0.45,0.44099 -1,0.44099 -0.55,0 -1,-0.47656 -1,-1.05902 z m 85,-9.94098 c 0.825,-0.53316 1.95,-0.96938 2.5,-0.96938 0.55,0 0.325,0.43622 -0.5,0.96938 -0.825,0.53315 -1.95,0.96937 -2.5,0.96937 -0.55,0 -0.325,-0.43622 0.5,-0.96937 z m -163.5,-7 c -0.3399,-0.55 0.282,-1 1.382,-1 1.1,0 2.2781,0.45 2.618,1 0.34,0.55 -0.2819,1 -1.3819,1 -1.1,0 -2.2781,-0.45 -2.6181,-1 z m -4.6875,-1.68312 c 0.7219,-0.28887 1.5844,-0.25334 1.9167,0.0789 0.3323,0.33229 -0.2583,0.56864 -1.3125,0.52522 -1.1649,-0.048 -1.4019,-0.28494 -0.6042,-0.60417 z m 175.6875,-5.68165 c 1.1,-0.8644 2.6525,-1.58594 3.45,-1.60343 2.0576,-0.0451 0.1016,1.58547 -2.95,2.45923 -2.4285,0.69536 -2.4428,0.67089 -0.5,-0.8558 z m 5.05,-3.4752 c 2.5672,-2.2698 8.3546,-5.12345 8.8302,-4.35394 0.5863,0.94866 -6.3336,5.19391 -8.4663,5.19391 -0.7964,0 -0.9397,-0.33085 -0.3639,-0.83997 z m 10.6938,-6.41003 c 0.2257,-0.6875 1.9507,-2.28699 3.8333,-3.55442 1.8826,-1.26744 4.5319,-3.26079 5.8872,-4.42968 1.3553,-1.16889 4.2007,-3.11157 6.323,-4.31706 2.1223,-1.2055 3.8837,-2.58714 3.9143,-3.07033 0.062,-0.97513 21.2487,-21.37851 22.1996,-21.37851 1.3551,0 0.441,1.93548 -1.9578,4.14504 -1.4061,1.29522 -5.3436,5.1905 -8.75,8.65617 -6.8626,6.98207 -23.9097,21.19879 -25.4192,21.19879 -0.5303,0 -1.7787,0.9 -2.7742,2 -2.0239,2.23638 -3.885,2.66505 -3.2562,0.75 z m -290.2438,-8.75 c 0,-0.55 0.4235,-1 0.941,-1 0.5176,0 1.2191,0.45 1.559,1 0.34,0.55 -0.083,1 -0.9409,1 -0.8575,0 -1.5591,-0.45 -1.5591,-1 z m -4.971,-1.96094 c -0.8091,-0.51168 -1.168,-1.23336 -0.7976,-1.60374 0.3704,-0.37038 1.402,0.0552 2.2925,0.94563 1.7595,1.75951 0.8676,2.15217 -1.4949,0.65811 z m -5.029,-3.03906 c 0,-0.55 0.45,-1 1,-1 0.55,0 1,0.45 1,1 0,0.55 -0.45,1 -1,1 -0.55,0 -1,-0.45 -1,-1 z m -5.9672,-2.72839 c -1.3105,-1.47586 -1.2751,-1.57859 0.3318,-0.96197 0.9895,0.3797 2.2122,0.69036 2.7172,0.69036 0.505,0 0.9182,0.45 0.9182,1 0,1.54151 -2.3317,1.1134 -3.9672,-0.72839 z m -8.4184,-4.238 c -3.2371,-1.5767 -6.3871,-2.6895 -7,-2.47287 -0.6129,0.21662 -2.6894,-0.9181 -4.6144,-2.52159 -2.497,-2.08002 -3.1931,-3.22575 -2.429,-3.99829 0.7668,-0.77524 2.1871,-0.2845 5,1.72756 2.161,1.54571 6.5165,4.06325 9.679,5.59453 3.1625,1.53128 5.75,3.20105 5.75,3.71059 0,1.16007 0.5354,1.33108 -6.3856,-2.03993 z m 360.3856,-21.03361 c 0,-0.55 0.45,-1 1,-1 0.55,0 1,0.45 1,1 0,0.55 -0.45,1 -1,1 -0.55,0 -1,-0.45 -1,-1 z m 44.5,-3 c 0.34,-0.55 1.0415,-1 1.5591,-1 0.5175,0 0.9409,0.45 0.9409,1 0,0.55 -0.7015,1 -1.559,1 -0.8574,0 -1.2809,-0.45 -0.941,-1 z m 5.5,-5.90539 c 0,-0.49796 1.6017,-2.82241 3.5592,-5.16545 1.9576,-2.34303 4.1972,-5.17096 4.977,-6.28428 0.7798,-1.11332 1.708,-1.73406 2.0626,-1.37942 0.5778,0.57779 -9.1786,13.73454 -10.1849,13.73454 -0.2276,0 -0.4139,-0.40743 -0.4139,-0.90539 z m 13,-16.64552 c 0,-0.30299 2.604,-4.01549 5.7865,-8.25 3.1826,-4.2345 7.2474,-10.17409 9.033,-13.19909 4.519,-7.65586 5.2168,-8.80314 8.9656,-14.74013 1.8198,-2.88207 3.9465,-6.76651 4.726,-8.63208 1.9842,-4.7489 5.6461,-10.80395 6.1993,-10.25074 1.1356,1.13552 -16.1949,33.54952 -20.9174,39.12295 -1.8642,2.2 -5.5315,6.8125 -8.1496,10.25 -4.4515,5.84466 -5.6434,7.04826 -5.6434,5.69909 z m -38,-9.44909 c 0,-0.55 0.45,-1 1,-1 0.55,0 1,0.45 1,1 0,0.55 -0.45,1 -1,1 -0.55,0 -1,-0.45 -1,-1 z m 3,-2.72468 c 0,-1.55263 3.3378,-7.26131 4.25,-7.269 1.3418,-0.0113 0.7981,1.53992 -1.75,4.99368 -1.375,1.8637 -2.5,2.8876 -2.5,2.27532 z m 72.5643,-51.56845 c 0.3756,-0.98622 0.9347,-1.54122 1.2426,-1.23334 0.3079,0.30789 7e-4,1.1148 -0.6828,1.79313 -0.9876,0.98027 -1.1024,0.86541 -0.5598,-0.55979 z m 1.503,-3.70687 c 0,-0.825 0.6467,-2.625 1.4327,-4 1.3065,-2.28544 1.4322,-2.3233 1.4646,-0.44113 0.019,1.13238 -0.6252,2.93238 -1.4328,4 -1.1079,1.46477 -1.4673,1.57303 -1.4645,0.44113 z m 4.5153,-11 c 0.7418,-2.78502 1.2147,-3.53604 1.8356,-2.91516 0.23,0.22999 -0.2388,1.54249 -1.0417,2.91666 l -1.4599,2.4985 z m -18.3326,-105.73064 c -0.6875,-0.23982 -1.2431,-1.63603 -1.2346,-3.1027 0.01,-1.46666 0.3459,-2.18384 0.75,-1.59372 0.404,0.59012 1.5221,1.36349 2.4846,1.71861 3.153,1.16331 1.1876,4.08967 -2,2.97781 z m -0.25,-7.26936 c 0,-0.55 0.4766,-1 1.0591,-1 0.5824,0 0.7809,0.45 0.4409,1 -0.3399,0.55 -0.8164,1 -1.059,1 -0.2425,0 -0.441,-0.45 -0.441,-1 z m 0.01,-17.25 c 0.078,-12.26901 -0.1003,-14.97973 -1.5265,-23.25 -0.2846,-1.65 -0.7082,-5.7 -0.9415,-9 -0.2332,-3.3 -0.6957,-7.4625 -1.0277,-9.25 -0.348,-1.87381 -0.1869,-3.25 0.3804,-3.25 0.5412,0 1.218,1.9125 1.504,4.25 0.2859,2.3375 1.0283,7.85 1.6497,12.25 1.6247,11.50502 2.3144,41.5 0.9541,41.5 -0.7185,0 -1.0484,-4.40501 -0.9925,-13.25 z m -5.0087,-53.30902 c 0,-0.85746 0.45,-1.2809 1,-0.94098 0.55,0.33991 1,1.04147 1,1.55901 0,0.51754 -0.45,0.94099 -1,0.94099 -0.55,0 -1,-0.70156 -1,-1.55902 z m -6.6549,-24.98411 c -0.3257,-0.84872 -0.3687,-1.76657 -0.096,-2.03967 0.2731,-0.27309 0.7365,0.42132 1.0299,1.54313 0.6232,2.38293 -0.069,2.75089 -0.9343,0.49654 z m -1.4701,-6.95687 c -1.3478,-5.39112 -3.2984,-11.76477 -5.4506,-17.8096 -2.7636,-7.76228 -3.1,-10.58671 -0.7419,-6.22952 3.0773,5.68619 8.4005,24.53912 6.9288,24.53912 -0.3362,0 -0.6675,-0.225 -0.7363,-0.5 z m -580.80743,-93 c 0.002,-0.55 1.11095,-2.35 2.46344,-4 1.35248,-1.65 2.4613,-2.4626 2.46403,-1.80577 0.003,0.65683 -1.10581,2.45683 -2.46343,4 -1.35762,1.54317 -2.46643,2.35577 -2.46404,1.80577 z m 517.93143,-20.55902 c 0,-0.58246 0.45,-0.7809 1,-0.44098 0.55,0.33991 1,0.81647 1,1.05901 0,0.24254 -0.45,0.44099 -1,0.44099 -0.55,0 -1,-0.47656 -1,-1.05902 z m -8.7642,-8.18893 c -2.2514,-2.33863 -5.363,-5.33098 -6.9146,-6.64966 -1.5517,-1.31868 -6.577,-5.7395 -11.1675,-9.82404 -4.5905,-4.08455 -10.6655,-8.96722 -13.5,-10.85039 -7.3466,-4.88085 -9.2962,-6.25808 -17.1537,-12.11785 -10.731,-8.00266 -12.0212,-9.12221 -11.3207,-9.82274 0.9458,-0.94585 4.0122,0.91245 12.6484,7.66536 4.2198,3.29959 10.5223,8.10255 14.0057,10.67326 13.3778,9.87271 39.2333,33.44064 38.0188,34.6551 -0.2876,0.28766 -2.365,-1.39041 -4.6164,-3.72904 z m -68.7358,-50.62759 c -4.5024,-1.52221 -11.3653,-5.53338 -10.8616,-6.34832 0.3034,-0.49105 1.0478,-0.47137 1.7006,0.045 0.6386,0.50503 2.736,1.43622 4.661,2.06931 1.925,0.6331 4.625,2.03173 6,3.10809 2.5457,1.99279 2.0856,2.33819 -1.5,1.12595 z m -16.5,-8.12446 c -0.7931,-0.49019 -1.2171,-1.11626 -0.9421,-1.39126 0.275,-0.275 1.149,-0.0989 1.9421,0.39126 0.7931,0.49019 1.2171,1.11625 0.9421,1.39125 -0.275,0.275 -1.149,0.0989 -1.9421,-0.39125 z m -40.75,-15.58445 c -1.7875,-0.78171 -3.25,-1.68075 -3.25,-1.99788 0,-0.85408 6.1198,0.61515 9,2.16072 l 2.5,1.34153 -2.5,-0.0415 c -1.375,-0.0228 -3.9625,-0.68111 -5.75,-1.46283 z m -154.25,-3.41555 c 0,-0.55 0.4766,-1 1.059,-1 0.5825,0 0.7809,0.45 0.441,1 -0.3399,0.55 -0.8165,1 -1.059,1 -0.2426,0 -0.441,-0.45 -0.441,-1 z m 145,0 c -0.825,-0.53316 -2.625,-0.98316 -4,-1 -2.8086,-0.0344 -5.7652,-1.56814 -4.8285,-2.50481 0.7878,-0.78781 11.6054,2.33474 12.369,3.57039 0.7542,1.22027 -1.6188,1.17631 -3.5405,-0.0656 z m -24.75,-4.27877 c -3.4375,-0.55018 -6.25,-1.44505 -6.25,-1.98859 0,-0.60944 1.6291,-0.71104 4.25,-0.26506 2.3375,0.39775 6.8289,1.04666 9.9809,1.44201 3.152,0.39536 6.0395,1.02743 6.4166,1.40462 0.9397,0.93965 -6.818,0.62015 -14.3975,-0.59298 z m -19.857,-2.8943 c -0.7312,-1.18321 8.8097,-0.99547 10.607,0.20871 1.0772,0.72173 -0.1343,0.9505 -4.2979,0.81162 -3.1889,-0.10637 -6.028,-0.56552 -6.3091,-1.02033 z m -15.3027,-0.99006 c -7.349,-1.05054 -11.4256,-2.75671 -6.7056,-2.80647 4.672,-0.0492 15.5743,2.22698 15.0134,3.13454 -0.2839,0.45928 -0.8271,0.77951 -1.2071,0.71163 -0.3801,-0.0679 -3.5754,-0.53575 -7.1007,-1.0397 z m 137.4097,-1.05251 c -5.1864,-2.99469 -5.8769,-6.06489 -0.7701,-3.42404 3.6977,1.91217 6.1619,4.65401 4.1426,4.60927 -0.7549,-0.0167 -2.2725,-0.55008 -3.3725,-1.18523 z m -9.5,-5.66965 c 0,-1.4381 0.4614,-1.8749 1.5423,-1.46012 1.7068,0.65495 1.4968,2.49904 -0.3548,3.11624 -0.6595,0.21982 -1.1875,-0.5166 -1.1875,-1.65612 z m -14.8905,-5.72078 c -2.4148,-1.3869 -6.5773,-3.66507 -9.25,-5.06259 -2.6727,-1.39751 -4.8595,-2.94378 -4.8595,-3.43614 0,-0.49236 -0.9,-0.89519 -2,-0.89519 -1.1,0 -2,-0.45 -2,-1 0,-1.25525 1.5097,-1.27977 3.7636,-0.0611 0.955,0.51639 5.3364,2.60886 9.7364,4.64992 10.7155,4.97067 12.9863,6.48664 11.3097,7.54997 -1.7573,1.11447 -1.6922,1.13144 -6.7002,-1.74486 z M 431.67987,157.7853 c 1.9388,-1.25293 3,-1.25293 3,0 0,0.55 -1.0125,0.99311 -2.25,0.98468 -1.8194,-0.0124 -1.9629,-0.20081 -0.75,-0.98468 z m 209,-3 c -0.825,-0.53316 -2.5125,-0.97627 -3.75,-0.98469 -1.2375,-0.008 -2.25,-0.46531 -2.25,-1.01531 0,-0.55 0.8735,-1 1.941,-1 1.0676,0 2.2191,0.45 2.559,1 0.34,0.55 1.915,1 3.5,1 1.5851,0 3.1601,0.45 3.5,1 0.7922,1.28168 -3.5167,1.28168 -5.5,0 z m -208.5,-2 c 0.34,-0.55 1.2931,-1 2.1181,-1 0.825,0 1.2219,0.45 0.8819,1 -0.3399,0.55 -1.293,1 -2.118,1 -0.825,0 -1.2219,-0.45 -0.882,-1 z m 5.1114,-0.81983 c -0.325,-0.52589 0.642,-1.1895 2.1488,-1.47468 1.5069,-0.28518 3.8227,-0.85647 5.1462,-1.26953 1.5759,-0.49183 2.185,-0.39274 1.7648,0.28711 -0.3529,0.57097 -1.6607,1.25898 -2.9064,1.52893 -1.2456,0.26994 -3.0067,0.80435 -3.9136,1.18757 -0.9069,0.38323 -1.9148,0.2665 -2.2398,-0.2594 z m 178.6427,-3.56238 c -6.7352,-1.71479 -12.2477,-3.38082 -12.25,-3.70229 -0.013,-1.84805 22.7284,3.69992 25.4459,6.20778 1.2634,1.16589 1.1101,1.13678 -13.1959,-2.50549 z m -166.2541,0.35052 c 0,-0.88947 2.5437,-1.96831 4.6409,-1.96831 0.8124,0 1.2323,0.39627 0.9329,0.88059 -0.6999,1.13248 -5.5738,2.08361 -5.5738,1.08772 z m 149,-4.96831 c 0,-0.55 0.6485,-1 1.441,-1 0.7926,0 1.7191,0.45 2.059,1 0.34,0.55 -0.3085,1 -1.4409,1 -1.1325,0 -2.0591,-0.45 -2.0591,-1 z" id="SvgjsPath1017"></path>
  </g>
</svg><style>@media (prefers-color-scheme: light) { :root { filter: none; } }
@media (prefers-color-scheme: dark) { :root { filter: invert(100%); } }
</style></svg>